HIERARCHY
ROOT Hips
{
  OFFSET 51.8783 97.2629 35.53
  CHANNELS 6 Xposition Yposition Zposition Zrotation Xrotation Yrotation
  JOINT spine
  {
    OFFSET 0 7.96568 0.458067
    CHANNELS 3 Zrotation Xrotation Yrotation
    JOINT spine1
    {
      OFFSET 0 10.2431 0
      CHANNELS 3 Zrotation Xrotation Yrotation
      JOINT spine2
      {
        OFFSET 0 9.81475 0
        CHANNELS 3 Zrotation Xrotation Yrotation
        JOINT Neck
        {
          OFFSET 0 25.1986 1.20138
          CHANNELS 3 Zrotation Xrotation Yrotation
          JOINT Head
          {
            OFFSET 0 7.61315 0
            CHANNELS 3 Zrotation Xrotation Yrotation
            End Site
            {
              OFFSET 0 18.4281 -6.07733
            }
          }
        }
        JOINT RightShoulder
        {
          OFFSET -4.1327 10.5992 -0.575451
          CHANNELS 3 Zrotation Xrotation Yrotation
          JOINT RightArm
          {
            OFFSET 0 13.9018 0
            CHANNELS 3 Zrotation Xrotation Yrotation
            JOINT RightArmRoll
            {
              OFFSET 0 7.01789 0
              CHANNELS 3 Zrotation Xrotation Yrotation
              JOINT RightForeArm
              {
                OFFSET 0 20.4406 0
                CHANNELS 3 Zrotation Xrotation Yrotation
                JOINT RightForeArmRoll
                {
                  OFFSET 0 7.87516 0
                  CHANNELS 3 Zrotation Xrotation Yrotation
                  JOINT RightHand
                  {
                    OFFSET 0 15.8037 0
                    CHANNELS 3 Zrotation Xrotation Yrotation
                    End Site
                    {
                      OFFSET 0 0 0
                    }
                  }
                }
              }
            }
          }
        }
        JOINT LeftShoulder
        {
          OFFSET 4.1327 10.5992 -0.575451
          CHANNELS 3 Zrotation Xrotation Yrotation
          JOINT LeftArm
          {
            OFFSET 0 13.9018 0
            CHANNELS 3 Zrotation Xrotation Yrotation
            JOINT LeftArmRoll
            {
              OFFSET 0 7.01788 0
              CHANNELS 3 Zrotation Xrotation Yrotation
              JOINT LeftForeArm
              {
                OFFSET 0 20.4406 0
                CHANNELS 3 Zrotation Xrotation Yrotation
                JOINT LeftForeArmRoll
                {
                  OFFSET 0 7.87515 0
                  CHANNELS 3 Zrotation Xrotation Yrotation
                  JOINT LeftHand
                  {
                    OFFSET 0 15.8037 0
                    CHANNELS 3 Zrotation Xrotation Yrotation
                    End Site
                    {
                      OFFSET 0 0 0
                    }
                  }
                }
              }
            }
          }
        }
      }
    }
  }
  JOINT RightUpLeg
  {
    OFFSET -7.06048 -1.2947 -1.0861
    CHANNELS 3 Zrotation Xrotation Yrotation
    JOINT RightUpLegRoll
    {
      OFFSET 0 18.5308 0
      CHANNELS 3 Zrotation Xrotation Yrotation
      JOINT RightLeg
      {
        OFFSET 0 -22.9476 0
        CHANNELS 3 Zrotation Xrotation Yrotation
        JOINT RightLegRoll
        {
          OFFSET 0 23.0226 0
          CHANNELS 3 Zrotation Xrotation Yrotation
          JOINT RightFoot
          {
            OFFSET 0 19.1625 0
            CHANNELS 3 Zrotation Xrotation Yrotation
            JOINT RightToeBase
            {
              OFFSET 0 16.0188 0
              CHANNELS 3 Zrotation Xrotation Yrotation
              End Site
              {
                OFFSET 0.00678979 7.75782 -0.894207
              }
            }
          }
        }
      }
    }
  }
  JOINT LeftUpLeg
  {
    OFFSET 7.06048 -1.2947 -1.0861
    CHANNELS 3 Zrotation Xrotation Yrotation
    JOINT LeftUpLegRoll
    {
      OFFSET 0 18.5309 0
      CHANNELS 3 Zrotation Xrotation Yrotation
      JOINT LeftLeg
      {
        OFFSET 0 22.9475 0
        CHANNELS 3 Zrotation Xrotation Yrotation
        JOINT LeftLegRoll
        {
          OFFSET 0 23.2355 0
          CHANNELS 3 Zrotation Xrotation Yrotation
          JOINT LeftFoot
          {
            OFFSET 0 18.9496 0
            CHANNELS 3 Zrotation Xrotation Yrotation
            JOINT LeftToeBase
            {
              OFFSET 0 16.0188 0
              CHANNELS 3 Zrotation Xrotation Yrotation
              End Site
              {
                OFFSET -0.0304289 7.75782 -0.894207
              }
            }
          }
        }
      }
    }
  }
}
MOTION
Frames: 5
Frame Time: 0.00208333
52.5887 80.1143 16.1277 0.929917 16.542 -1.9777 0.183931 2.86463 -0.327244 0.391725 9.73091 -0.690317 0.401425 11.3759 -0.698619 -13.6418 -8.86548 4.21386 5.91559 33.9963 2.02336 50.2507 -4.72442 -2.31542 134.808 41.057 -32.1231 3.39544e-006 1.60077e-006 8.38563e-007 14.9572 25.4447 -4.80779 -6.65992e-006 5.2644e-006 -2.99999 8.02924 -4.9516 0.697671 -59.1796 -12.9344 8.0653 -112.5 37.7772 46.1182 -3.10104e-014 2.62396e-014 9.54166e-015 -32.0931 50.6055 17.9033 7.36795e-006 -2.38465e-006 3.00002 -8.02919 -4.951 -0.697533 166.901 66.5489 10.3362 -180 7.01577e-015 179.063 -178.304 65.0043 176.676 -1.96685e-006 -3.53242e-006 1.4845 -24.0428 73.3351 25.3776 8.17692 26.8546 -1.33531 -160.216 67.1539 -17.4812 4.54188e-006 -4.6773e-006 -0.874903 -2.59664 -61.1349 0.138175 -1.6134e-006 -4.95199e-006 -1.16977 18.5142 67.543 -19.1657 -8.1757 27.1732 0.916224 
52.5911 80.2425 16.2101 0.917655 16.4106 -1.98489 0.185424 2.84765 -0.323468 0.394385 9.69695 -0.682926 0.403998 11.342 -0.691249 -13.6611 -8.62862 4.23028 5.87622 33.8979 2.02224 50.3366 -4.70674 -2.30899 134.849 41.0811 -31.9076 3.39544e-006 1.60077e-006 8.38563e-007 14.789 25.001 -4.69285 -6.65992e-006 5.2644e-006 -2.99999 8.02924 -4.9516 0.697671 -59.1918 -12.8939 8.03935 -112.743 37.8561 45.9506 4.77083e-015 -4.77083e-015 -3.18055e-015 -31.9411 49.9795 17.5364 7.36795e-006 -2.38465e-006 3.00002 -8.02919 -4.951 -0.697533 167.07 66.1883 10.1638 -180 7.01577e-015 179.062 -178.356 64.7606 176.718 -1.96685e-006 -3.53242e-006 1.47695 -24.0127 73.3134 25.3452 8.17687 26.8605 -1.32744 -160.5 66.8103 -17.1776 4.54188e-006 -4.6773e-006 -0.876299 -2.59783 -60.8969 0.138643 -1.6134e-006 -4.95199e-006 -1.16247 18.5064 67.5334 -19.1573 -8.17588 27.1765 0.913755 
52.603 80.3757 16.2825 0.904961 16.2778 -1.99206 0.18711 2.83091 -0.319652 0.397424 9.66348 -0.67549 0.406951 11.3085 -0.683842 -13.6812 -8.39006 4.24761 5.83614 33.8 2.02188 50.4197 -4.68811 -2.30167 134.886 41.0989 -31.6895 3.39544e-006 1.60077e-006 8.38563e-007 14.6184 24.5699 -4.58069 -6.65992e-006 5.2644e-006 -2.99999 8.02924 -4.9516 0.697671 -59.2036 -12.8525 8.01286 -112.988 37.9328 45.7805 5.56597e-015 2.78299e-015 -3.18055e-015 -31.7889 49.3513 17.1727 7.36795e-006 -2.38465e-006 3.00002 -8.02919 -4.951 -0.697533 167.237 65.8257 9.99493 -180 7.01577e-015 179.061 -178.407 64.5158 176.759 -1.96685e-006 -3.53242e-006 1.46939 -23.9821 73.2912 25.3122 8.17682 26.8664 -1.31958 -160.775 66.4642 -16.883 4.54188e-006 -4.6773e-006 -0.877725 -2.59845 -60.6582 0.139612 -1.6134e-006 -4.95199e-006 -1.15515 18.4982 67.5233 -19.1484 -8.17607 27.1799 0.911272 
52.6018 80.5165 16.3759 0.891876 16.1436 -1.99926 0.188902 2.81442 -0.315856 0.400673 9.6305 -0.668115 0.410115 11.2755 -0.676499 -13.7011 -8.15034 4.26582 5.79502 33.7031 2.02247 50.5011 -4.66871 -2.29368 134.917 41.1114 -31.4696 3.39544e-006 1.60077e-006 8.38563e-007 14.4465 24.1506 -4.4714 -6.65992e-006 5.2644e-006 -2.99999 8.02924 -4.9516 0.697671 -59.215 -12.8105 7.98607 -113.235 38.0073 45.6081 -2.98177e-014 3.02153e-014 -6.36111e-015 -31.6369 48.7216 16.813 7.36795e-006 -2.38465e-006 3.00002 -8.02919 -4.951 -0.697533 167.401 65.4612 9.82899 -180 7.01577e-015 179.06 -178.456 64.27 176.799 -1.96685e-006 -3.53242e-006 1.46183 -23.9508 73.2685 25.2784 8.17678 26.8723 -1.31176 -161.042 66.1157 -16.5969 4.54188e-006 -4.6773e-006 -0.879173 -2.59864 -60.4186 0.140998 -1.6134e-006 -4.95199e-006 -1.14783 18.4897 67.5127 -19.1391 -8.17626 27.1832 0.908813 
52.6026 80.665 16.4772 0.878445 16.0082 -2.00654 0.190712 2.79818 -0.31214 0.403962 9.59803 -0.660905 0.413321 11.2431 -0.669324 -13.7199 -7.91002 4.28487 5.75253 33.6072 2.02421 50.5819 -4.64869 -2.28522 134.945 41.1197 -31.2483 3.39544e-006 1.60077e-006 8.38563e-007 14.2742 23.7423 -4.3651 -6.65992e-006 5.2644e-006 -2.99999 8.02924 -4.9516 0.697671 -59.2262 -12.7685 7.95923 -113.483 38.0797 45.4335 -7.15625e-015 9.93923e-015 -0 -31.4853 48.0913 16.458 7.36795e-006 -2.38465e-006 3.00002 -8.02919 -4.951 -0.697533 167.563 65.095 9.66539 -180 7.01576e-015 179.059 -178.504 64.023 176.838 -1.96685e-006 -3.53242e-006 1.45426 -23.9191 73.2454 25.2442 8.17675 26.8781 -1.30404 -161.301 65.7649 -16.3191 4.54188e-006 -4.6773e-006 -0.880634 -2.5985 -60.178 0.142721 -1.6134e-006 -4.95199e-006 -1.14048 18.4808 67.5016 -19.1295 -8.17644 27.1865 0.906417 
